<?xml version="1.0" encoding="UTF-8" standalone="no"?>
<svg width="417px" height="151px" viewBox="0 0 417 151" version="1.1" xmlns="http://www.w3.org/2000/svg" xmlns:xlink="http://www.w3.org/1999/xlink">
    <!-- Generator: Sketch 40.1 (33804) - http://www.bohemiancoding.com/sketch -->
    <title>Analytics-subhero</title>
    <desc>Created with Sketch.</desc>
    <defs></defs>
    <g id="starters" stroke="none" stroke-width="1" fill="none" fill-rule="evenodd">
        <g id="Analytics-subhero">
            <rect id="bg" fill="#C0E6FF" x="0" y="0" width="417" height="151"></rect>
            <g id="phone" transform="translate(138.000000, 18.000000)">
                <path d="M0.5,133.5 L0.5,17.2184466 C0.5,7.98429122 7.92599996,0.5 17.0882352,0.5 L124.911764,0.5 C134.073999,0.5 141.5,7.98429122 141.5,17.2184466 L141.5,133.5" stroke="#264A60" fill="#FFFFFF"></path>
                <path d="M1.5,30.5 L141.5,30.5" id="Line" stroke="#264A60" stroke-linecap="square"></path>
                <path d="M87.123182,17.7864078 L59.3868182,17.7864078 C58.6212945,17.7864078 58,17.1622524 58,16.3932039 C58,15.6241553 58.6212945,15 59.3868182,15 L87.123182,15 C87.8887057,15 88.5100002,15.6241553 88.5100002,16.3932039 C88.5100002,17.1622524 87.8887057,17.7864078 87.123182,17.7864078 Z" id="speaker" fill="#264A60"></path>
            </g>
            <g id="analytics" transform="translate(182.000000, 76.000000)">
                <g id="Layer_1">
                    <rect id="Rectangle-path" fill="#00B4A0" x="39.53125" y="12.890625" width="15.46875" height="42.109375"></rect>
                    <polygon id="Shape" fill="#AAF3E8" points="15.46875 28.359375 0 39.875 0 0 15.46875 0"></polygon>
                    <rect id="Rectangle-path" fill="#00B4A0" x="0" y="39.53125" width="15.46875" height="15.46875"></rect>
                    <polygon id="Shape" fill="#AAF3E8" points="55 1.375 39.53125 12.890625 39.53125 0 55 0"></polygon>
                    <polygon id="Shape" fill="#C0E6FF" points="35.234375 15.46875 19.765625 26.984375 19.765625 0 35.234375 0"></polygon>
                    <rect id="Rectangle-path" fill="#5AAAFA" x="19.765625" y="26.640625" width="15.46875" height="28.359375"></rect>
                </g>
            </g>
        </g>
    </g>
</svg>